HIERARCHY
ROOT SpineBase
{
  OFFSET 0.000000 0.000000 0.000000
  CHANNELS 6 Xposition Yposition Zposition Zrotation Xrotation Yrotation
  JOINT SpineMid
  {
    OFFSET 0.000000 26.576143 0.000000
    CHANNELS 3 Zrotation Xrotation Yrotation
    JOINT SpineShoulder
    {
      OFFSET -0.005338 19.818505 -0.571948
      CHANNELS 3 Zrotation Xrotation Yrotation
      JOINT Neck
      {
        OFFSET 0.009789 6.584696 -0.451253
        CHANNELS 3 Zrotation Xrotation Yrotation
        JOINT Head
        {
          OFFSET 3.638158 11.678827 -0.329171
          CHANNELS 3 Zrotation Xrotation Yrotation
          End Site
          {
            OFFSET 0 0 0
          }
        }
      }
      JOINT ShoulderLeft
      {
        OFFSET -11.426578 -1.835818 -7.238804
        CHANNELS 3 Zrotation Xrotation Yrotation
        JOINT ElbowLeft
        {
          OFFSET -5.152042 -20.351850 -2.889671
          CHANNELS 3 Zrotation Xrotation Yrotation
          JOINT WristLeft
          {
            OFFSET 2.082181 -20.453078 -5.236135
            CHANNELS 3 Zrotation Xrotation Yrotation
            JOINT HandLeft
            {
              OFFSET 0.789627 -6.910801 -0.673716
              CHANNELS 3 Zrotation Xrotation Yrotation
              JOINT HandTipLeft
              {
                OFFSET 0.467582 -6.588387 -0.523349
                CHANNELS 3 Zrotation Xrotation Yrotation
                End Site
                {
                  OFFSET 0 0 0
                }
              }
              JOINT ThumbLeft
              {
                OFFSET -2.422133 0.073163 -2.386835
                CHANNELS 3 Zrotation Xrotation Yrotation
                End Site
                {
                  OFFSET 0 0 0
                }
              }
            }
          }
        }
      }
      JOINT ShoulderRight
      {
        OFFSET 11.164980 -2.146579 2.954934
        CHANNELS 3 Zrotation Xrotation Yrotation
        JOINT ElbowRight
        {
          OFFSET 0.138693 -23.292318 6.519607
          CHANNELS 3 Zrotation Xrotation Yrotation
          JOINT WristRight
          {
            OFFSET 1.697775 -17.109302 -1.183799
            CHANNELS 3 Zrotation Xrotation Yrotation
            JOINT HandRight
            {
              OFFSET 0.903651 -7.324857 -0.948252
              CHANNELS 3 Zrotation Xrotation Yrotation
              JOINT HandTipRight
              {
                OFFSET 1.098230 -5.465633 2.014101
                CHANNELS 3 Zrotation Xrotation Yrotation
                End Site
                {
                  OFFSET 0 0 0
                }
              }
              JOINT ThumbRight
              {
                OFFSET -0.338701 -3.769375 -1.331388
                CHANNELS 3 Zrotation Xrotation Yrotation
                End Site
                {
                  OFFSET 0 0 0
                }
              }
            }
          }
        }
      }
    }
  }
  JOINT HipLeft
  {
    OFFSET -5.717680 1.175095 -5.199319
    CHANNELS 3 Zrotation Xrotation Yrotation
    JOINT KneeLeft
    {
      OFFSET -8.034156 -28.103075 -1.728616
      CHANNELS 3 Zrotation Xrotation Yrotation
      JOINT AnkleLeft
      {
        OFFSET -4.111935 -32.782883 6.842863
        CHANNELS 3 Zrotation Xrotation Yrotation
        JOINT FootLeft
        {
          OFFSET 3.614073 -4.319599 -6.847424
          CHANNELS 3 Zrotation Xrotation Yrotation
          End Site
          {
            OFFSET 0 0 0
          }
        }
      }
    }
  }
  JOINT HipRight
  {
    OFFSET 5.505351 0.628535 -0.774515
    CHANNELS 3 Zrotation Xrotation Yrotation
    JOINT KneeRight
    {
      OFFSET -4.185205 -28.890905 1.417142
      CHANNELS 3 Zrotation Xrotation Yrotation
      JOINT AnkleRight
      {
        OFFSET -3.779378 -33.809514 5.794102
        CHANNELS 3 Zrotation Xrotation Yrotation
        JOINT FootRight
        {
          OFFSET -1.539593 -3.955097 -9.223209
          CHANNELS 3 Zrotation Xrotation Yrotation
          End Site
          {
            OFFSET 0 0 0
          }
        }
      }
    }
  }
}
MOTION
Frames: 12
Frame Time: 0.033333
12.706564 69.327162 356.347951 -0.000000 0.000000 -21.517384 0.000000 0.000000 21.517384 -0.000000 0.000000 0.000000 -0.000000 0.000000 0.000000 0.000000 0.000000 0.000000 -0.000000 0.000000 0.000000 -0.000000 0.000000 0.000000 -0.000000 0.000000 0.000000 -0.000000 0.000000 0.000000 0.000000 0.000000 0.000000 0.000000 0.000000 0.000000 -0.000000 0.000000 0.000000 -0.000000 0.000000 0.000000 -0.000000 0.000000 0.000000 -0.000000 0.000000 0.000000 0.000000 0.000000 0.000000 0.000000 0.000000 0.000000 0.000000 0.000000 21.517384 -0.000000 0.000000 0.000000 -0.000000 0.000000 0.000000 0.000000 0.000000 0.000000 0.000000 0.000000 21.517384 -0.000000 0.000000 0.000000 -0.000000 0.000000 0.000000 0.000000 0.000000 0.000000
12.803299 69.292967 356.420964 0.046731 0.019515 -22.031033 -0.035999 -0.035619 22.031013 -0.000000 0.000000 0.000000 -0.000000 0.000000 0.000000 0.000000 0.000000 0.000000 -0.000000 0.000000 0.000000 -0.000000 0.000000 0.000000 1.612880 1.071565 -0.049764 -0.841531 -0.810016 -0.010338 0.000000 0.000000 0.000000 0.000000 0.000000 0.000000 0.009085 -1.055461 -0.003649 -0.491597 3.361326 0.284337 0.418783 2.246454 0.316204 -3.233333 6.643259 0.540811 0.000000 0.000000 0.000000 0.000000 0.000000 0.000000 -0.035999 -0.035619 22.031013 -0.000000 0.000000 0.000000 0.629510 4.229416 2.369148 0.000000 0.000000 0.000000 -0.035999 -0.035619 22.031013 -0.000000 0.000000 0.000000 -1.156079 -2.533063 3.838129 0.000000 0.000000 0.000000
12.890769 69.262880 356.486895 0.094114 0.034795 -22.483377 -0.073654 -0.068140 22.483304 -0.000000 0.000000 0.000000 0.778129 -0.278055 0.110666 0.000000 0.000000 0.000000 -0.000000 0.000000 0.000000 -0.000000 0.000000 0.000000 2.927526 1.927663 -0.113927 -1.418913 -1.363617 -0.020688 0.000000 0.000000 0.000000 0.000000 0.000000 0.000000 0.076250 -1.704595 0.012275 -0.768266 5.950548 0.504615 0.502942 4.888842 0.704165 -6.015284 11.479359 0.879658 0.000000 0.000000 0.000000 0.000000 0.000000 0.000000 -0.073654 -0.068140 22.483304 -0.000000 0.000000 0.000000 0.966466 7.171029 3.988839 0.000000 0.000000 0.000000 -0.073654 -0.068140 22.483304 -0.000000 0.000000 0.000000 -1.790001 -4.684881 6.500237 0.000000 0.000000 0.000000
12.968974 69.236902 356.545743 0.142161 0.045855 -22.874195 -0.113157 -0.097508 22.874042 -0.000000 0.000000 0.000000 1.015758 -0.325772 0.133359 0.000000 0.000000 0.000000 -0.000000 0.000000 0.000000 -0.000000 0.000000 0.000000 3.946989 2.571290 -0.178611 -1.738781 -1.663767 -0.027263 0.000000 0.000000 0.000000 0.000000 0.000000 0.000000 0.201740 -1.946259 0.048075 -0.851042 7.802194 0.638850 0.275868 7.574754 1.108529 -8.185371 14.535373 0.906811 0.000000 0.000000 0.000000 0.000000 0.000000 0.000000 -0.113157 -0.097508 22.874042 0.798646 -0.505657 0.233644 0.386492 9.604411 4.801618 0.000000 0.000000 0.000000 -0.113157 -0.097508 22.874042 -0.000000 0.000000 0.000000 -1.944210 -6.294025 7.820253 0.000000 0.000000 0.000000
13.037912 69.215034 356.597508 0.190886 0.052710 -23.203279 -0.154678 -0.123654 23.203024 -0.000000 0.000000 0.000000 1.151209 -0.312390 0.133309 0.000000 0.000000 0.000000 -0.000000 0.000000 0.000000 0.165046 0.907389 0.048711 4.509314 2.098493 -0.210721 -1.809225 -1.715052 -0.028825 0.000000 0.000000 0.000000 0.000000 0.000000 0.000000 0.385307 -1.779764 0.102787 -0.760213 8.948640 0.680497 -0.226367 9.913295 1.472759 -9.771753 16.282670 0.670772 0.000000 0.000000 0.000000 0.000000 0.000000 0.000000 -0.154678 -0.123654 23.203024 0.955852 -0.613399 0.281558 0.332802 10.808618 5.344468 0.000000 0.000000 0.000000 -0.154678 -0.123654 23.203024 -0.000000 0.000000 0.000000 -1.661171 -7.262604 7.683401 0.000000 0.000000 0.000000
13.097585 69.197275 356.642190 0.240301 0.055369 -23.470417 -0.198368 -0.146493 23.470047 -0.000000 0.000000 0.000000 1.183935 -0.237756 0.110241 0.000000 0.000000 0.000000 -0.000000 0.000000 0.000000 0.139803 1.056474 0.070301 4.977475 2.180729 -0.250174 -1.638679 -1.522772 -0.026419 0.000000 0.000000 0.000000 0.000000 0.000000 0.000000 0.626209 -1.204535 0.174172 -0.516833 9.418519 0.635728 -0.957386 11.541902 1.742542 -10.907147 17.276761 0.313230 0.000000 0.000000 0.000000 0.000000 0.000000 0.000000 -0.198368 -0.146493 23.470047 1.059692 -0.691741 0.314329 0.270420 11.250306 5.498852 0.000000 0.000000 0.000000 -0.198368 -0.146493 23.470047 -0.000000 0.000000 0.000000 -0.957592 -7.546373 6.012188 0.000000 0.000000 0.000000
13.150888 69.185610 356.668187 0.320867 0.045922 -23.622774 -0.275579 -0.170648 23.622235 -0.000000 0.000000 0.000000 0.931010 0.023166 0.018884 0.000000 0.000000 0.000000 -0.000000 0.000000 0.000000 0.106076 1.222384 0.095888 4.940614 2.015848 -0.253055 -0.705988 -0.808795 -0.040289 0.000000 0.000000 0.000000 0.000000 0.000000 0.000000 1.048253 -0.303435 0.294153 -0.178602 9.539769 0.493344 -2.953456 14.551106 2.364168 -9.667638 11.164162 -1.756020 0.000000 0.000000 0.000000 0.000000 0.000000 0.000000 -1.177176 -0.147905 23.560876 1.926025 -1.116113 0.399585 -0.779553 3.861554 1.704286 0.000000 0.000000 0.000000 -0.275579 -0.170648 23.622235 -0.000000 0.000000 0.000000 3.687069 -2.750081 -7.976278 0.000000 0.000000 0.000000
13.194835 69.175963 356.701024 0.414959 0.000315 -23.722163 -0.379772 -0.167226 23.721607 -0.000000 0.000000 0.000000 -0.000000 0.000000 0.000000 0.000000 0.000000 0.000000 0.885624 0.413245 -0.233893 -0.870195 0.927238 0.358964 4.978483 1.520043 -0.296966 0.096898 -0.021218 -0.040273 0.000000 0.000000 0.000000 0.000000 0.000000 0.000000 1.590607 1.109692 0.437596 0.199847 8.921417 0.281886 -4.318743 12.905761 2.185853 -10.104046 12.398168 -1.824818 0.000000 0.000000 0.000000 0.000000 0.000000 0.000000 -1.351200 -0.136030 23.653245 1.989763 -1.190499 0.413571 -1.192439 1.584060 0.486903 0.000000 0.000000 0.000000 -0.379772 -0.167226 23.721607 -0.000000 0.000000 0.000000 4.530835 -2.407480 -10.168585 0.000000 0.000000 0.000000
13.219595 69.170149 356.733973 0.422930 0.015064 -23.793637 -0.380907 -0.184410 23.792968 -0.000000 0.000000 0.000000 -0.000000 0.000000 0.000000 0.000000 0.000000 0.000000 1.191101 0.572663 -0.320664 -1.280388 0.783264 0.468942 4.689300 0.601086 -0.350304 0.763712 0.562516 -0.036734 0.000000 0.000000 0.000000 0.000000 0.000000 0.000000 1.956553 2.991198 0.518156 0.716071 7.508575 0.131286 -4.607483 8.684520 1.477062 -12.136121 16.103205 -1.211651 0.000000 0.000000 0.000000 0.000000 0.000000 0.000000 -1.368491 -0.137808 23.718706 1.870451 -1.186451 0.387967 -1.018306 1.538265 0.424423 0.000000 0.000000 0.000000 -0.380907 -0.184410 23.792968 -0.000000 0.000000 0.000000 4.239344 -4.155558 -8.992017 0.000000 0.000000 0.000000
13.237698 69.166938 356.753890 0.412730 0.057706 -23.879456 -0.354042 -0.219843 23.878569 -0.000000 0.000000 0.000000 -0.000000 0.000000 0.000000 0.000000 0.000000 0.000000 1.536098 0.794977 -0.431061 -1.785897 0.426068 0.597151 4.626295 0.765081 -0.363486 0.069656 0.758799 0.011454 0.000000 0.000000 0.000000 0.000000 0.000000 0.000000 2.165897 5.169202 0.546170 1.341923 5.244084 0.045450 -4.573274 5.106388 0.884851 -14.539210 20.213398 -0.115359 0.000000 0.000000 0.000000 0.000000 0.000000 0.000000 -1.323283 -0.175626 23.805089 1.802130 -1.173293 0.374130 0.234905 7.381933 3.069837 0.000000 0.000000 0.000000 -0.354042 -0.219843 23.878569 -0.000000 0.000000 0.000000 2.691224 -8.939931 -3.189441 0.000000 0.000000 0.000000
13.248540 69.162257 356.763809 0.382268 0.114652 -23.998277 -0.302597 -0.260210 23.997208 -0.000000 0.000000 0.000000 -0.000000 0.000000 0.000000 0.000000 0.000000 0.000000 1.812477 0.993507 -0.526050 -2.151018 0.120220 0.693080 4.350198 1.346081 -0.310749 -0.137216 0.901974 0.005583 0.000000 0.000000 0.000000 0.000000 0.000000 0.000000 2.276205 7.081173 0.547986 2.028628 2.545619 -0.003009 -4.342213 4.140755 0.672743 -17.225810 21.585471 -0.030214 0.000000 0.000000 0.000000 0.000000 0.000000 0.000000 -1.218764 -0.242369 23.933192 1.710810 -1.111080 0.348695 0.777053 10.345859 4.413924 0.000000 0.000000 0.000000 -0.302597 -0.260210 23.997208 -0.000000 0.000000 0.000000 3.622763 -11.092894 -4.946063 0.000000 0.000000 0.000000
13.261256 69.160220 356.764969 0.357630 0.176115 -24.176586 -0.254138 -0.307132 24.175355 -0.000000 0.000000 0.000000 -0.000000 0.000000 0.000000 0.000000 0.000000 0.000000 1.970529 1.111656 -0.582084 -2.356161 -0.107830 0.742538 4.111868 1.989584 -0.247093 -0.503330 -0.107023 -0.041908 0.000000 0.000000 0.000000 0.000000 0.000000 0.000000 2.439976 8.196685 0.568420 2.909735 0.425056 -0.069734 -7.210363 5.778396 1.070158 -13.907830 20.157657 -0.095230 0.000000 0.000000 0.000000 0.000000 0.000000 0.000000 -1.091816 -0.337224 24.128283 1.635509 -1.069888 0.328640 0.482695 8.769158 3.788909 0.000000 0.000000 0.000000 -0.254138 -0.307132 24.175355 -0.000000 0.000000 0.000000 2.533628 -17.579356 2.187018 0.000000 0.000000 0.000000
